<svg width="30" height="44" viewBox="0 0 30 44" fill="none" xmlns="http://www.w3.org/2000/svg">
<path d="M7.55181 43.2164C6.25517 43.7526 4.96805 44.0772 3.59727 43.7147C2.90846 43.5325 2.48613 43.0818 2.46043 42.5034C2.43588 41.9514 2.78391 41.5763 3.53095 41.3491C3.67957 41.3039 3.82094 41.2411 3.92183 41.1194C4.40854 40.5322 4.72738 39.8731 4.81327 39.0568C4.44004 39.0931 4.15649 39.2986 3.81223 39.2964C2.83573 39.2902 2.12018 38.7049 2.07462 37.7375C2.03146 36.8209 2.05648 35.8998 2.08424 34.9817C2.10045 34.4454 2.31156 33.9517 2.60804 33.5112C2.80917 33.2124 2.8292 32.9756 2.67319 32.6282C1.83612 30.7642 1.27077 28.8131 0.79782 26.8243C0.0594572 23.7194 -0.0210435 20.575 0.00373889 17.4087C0.0378357 13.0518 0.0105906 8.69454 0.00955885 4.33744C0.00936866 3.53591 0.0666176 3.48183 0.846936 3.54827C0.914743 3.55405 0.982469 3.56166 1.0504 3.56489C1.90997 3.6057 1.90998 3.60554 2.03867 2.76607C2.22258 1.56634 3.19863 0.60142 4.40457 0.306962C6.30036 -0.155942 8.19497 -0.055924 10.0641 0.345068C11.8642 0.731277 13.3819 1.63441 14.382 3.25675C14.4348 3.34248 14.5039 3.41995 14.5747 3.49208C14.6075 3.52545 14.6628 3.5367 14.6989 3.55376C14.8484 3.53894 14.9114 3.43324 14.9744 3.33323C16.0889 1.56266 17.7418 0.660877 19.7559 0.267653C21.1258 0.000205765 22.4931 -0.0692504 23.8652 0.108491C25.1505 0.274979 26.2568 0.76894 26.8128 2.07189C26.9575 2.41101 26.978 2.76454 27.0147 3.11632C27.0436 3.39324 27.1717 3.51095 27.4385 3.50958C27.7448 3.508 28.0514 3.50427 28.3574 3.51366C28.9482 3.53178 29.066 3.65219 29.0669 4.25064C29.071 7.24614 29.073 10.2416 29.0738 13.2371C29.0744 15.739 29.1092 18.2418 29.0562 20.7426C29.0286 22.0457 28.8631 23.3437 28.6426 24.6377C28.4548 25.7403 28.2556 26.842 27.9903 27.9233C27.6635 29.2557 27.2407 30.5713 26.6751 31.8253C26.3375 32.5738 26.2061 33.2138 26.6722 34.0014C27.169 34.8409 26.9856 35.851 26.9811 36.7978C26.9797 37.1037 26.948 37.4093 26.9431 37.7153C26.924 38.9027 25.9596 39.589 24.8083 39.2355C24.649 39.1865 24.5137 39.0583 24.331 39.0838C24.2103 39.9714 24.9753 41.175 25.806 41.409C26.2352 41.5298 26.6063 42.0237 26.615 42.4855C26.6243 42.9824 26.1611 43.5392 25.6181 43.714C24.5611 44.0541 23.5293 43.8151 22.5048 43.5723C21.2753 43.281 20.34 42.5566 19.6569 41.4389C18.7232 42.1185 17.7575 42.6447 16.7663 43.1276C16.1851 43.4108 15.5932 43.6648 14.9946 43.9086C14.3683 44.1637 13.8588 43.8256 13.3412 43.6137C12.1121 43.1104 10.9262 42.5159 9.8481 41.7264C9.71516 41.6291 9.55687 41.5663 9.37311 41.4675C8.92384 42.2221 8.35558 42.8187 7.55181 43.2164ZM9.18001 17.2191C8.12468 17.2171 7.0693 17.2201 6.01403 17.2109C5.55269 17.2069 5.09574 17.2281 4.64445 17.3284C3.64244 17.551 3.05911 18.2986 3.13506 19.2625C3.19384 20.0086 3.78425 20.5919 4.65998 20.8428C6.48577 21.3659 8.29769 21.2273 10.0965 20.7421C12.8273 20.0055 14.1043 18.3789 13.9893 15.7786C13.9306 14.4503 13.4568 13.3045 12.0528 12.832C11.4878 12.6419 10.8903 12.6118 10.294 12.5972C9.59775 12.5802 8.89616 12.6711 8.20593 12.5281C7.38825 12.3588 6.95334 11.7282 7.04509 10.8738C7.12099 10.1671 7.67121 9.72074 8.4718 9.70454C9.33889 9.687 10.2055 9.72187 11.0732 9.6378C12.6069 9.48921 13.4508 8.78582 13.839 7.31464C14.4399 5.03785 13.2712 2.5102 10.8182 1.70138C9.73658 1.34476 8.6402 1.16702 7.52558 1.09074C6.4222 1.01524 5.31516 1.08615 4.26762 1.50874C3.44864 1.83913 3.09162 2.34627 3.10282 3.12009C3.11445 3.92308 3.54433 4.51921 4.32539 4.82568C4.84033 5.02772 5.37656 5.10116 5.92504 5.10313C7.35488 5.10825 8.78475 5.10645 10.2145 5.11689C10.8914 5.12184 11.4555 5.38756 11.7851 5.98954C12.5134 7.31981 11.5554 8.6253 10.1058 8.73515C8.48269 8.85814 6.84631 8.7343 5.22546 9.01761C4.25932 9.18648 3.51666 9.7231 3.37117 10.517C3.15247 11.7103 3.53126 12.629 4.50049 13.0431C5.02589 13.2676 5.60138 13.3893 6.18767 13.391C7.27697 13.3942 8.36644 13.4119 9.45549 13.3976C9.92716 13.3915 10.3677 13.4934 10.7974 13.6587C11.6737 13.9955 12.1777 14.8841 12.0161 15.7819C11.8712 16.5872 11.1207 17.1843 10.2008 17.2171C9.89475 17.228 9.58804 17.2193 9.18001 17.2191ZM15.2939 12.7502C15.3187 13.9405 15.3201 15.1318 15.3737 16.3208C15.4483 17.9746 16.2 19.2276 17.6539 20.0599C18.7862 20.7081 20.0274 21.0084 21.2945 21.119C22.3335 21.2097 23.3932 21.2486 24.4295 20.9265C25.3296 20.6467 25.9166 20.0249 25.9581 19.1735C26.0034 18.2406 25.5525 17.5803 24.6375 17.231C24.1342 17.0389 23.6064 17.0225 23.0802 17.0201C21.5148 17.0129 19.9493 17.0244 18.3838 17.0163C17.1951 17.0102 16.2103 16.0844 16.1482 14.9357C16.0751 13.5852 16.9124 12.4716 18.1355 12.344C18.6919 12.286 19.2563 12.2957 19.8172 12.2915C21.1954 12.2812 22.574 12.2963 23.9519 12.2706C24.9005 12.253 25.3492 11.5397 25.0296 10.6515C24.7933 9.99482 24.2483 9.96222 23.694 9.96017C21.9415 9.9537 20.1888 9.97899 18.4367 9.95619C16.6738 9.93326 15.5833 8.00171 16.4343 6.46285C16.9127 5.59782 17.6655 5.2255 18.62 5.22047C20.3216 5.21152 22.0234 5.23328 23.7247 5.20946C24.5326 5.19814 25.3083 5.01099 25.7097 4.20483C26.3695 2.88003 25.7855 1.49508 23.9935 1.19971C22.4315 0.942236 20.88 1.0773 19.3488 1.46802C16.8432 2.10738 15.2454 3.72827 15.2902 6.57401C15.3222 8.59826 15.2945 10.6234 15.2939 12.7502ZM5.81049 30.3773C6.52466 30.3957 7.2388 30.4291 7.95299 30.4301C13.0244 30.4369 18.0959 30.4381 23.1673 30.4371C23.4727 30.437 23.7782 30.4051 24.0833 30.3844C24.9368 30.3264 25.5248 29.8952 25.7963 29.0882C26.0968 28.1948 25.8232 27.2013 25.1526 26.6708C24.627 26.2549 23.9955 26.2194 23.3591 26.2195C18.3727 26.2207 13.3863 26.2208 8.39998 26.2215C7.31082 26.2216 6.22134 26.2064 5.1326 26.2281C4.14708 26.2478 3.35117 26.9197 3.154 27.8479C2.94767 28.8192 3.36275 29.6852 4.21621 30.1738C4.69916 30.4502 5.21035 30.326 5.81049 30.3773ZM15.8205 38.8405C16.7561 38.8388 17.6918 38.8308 18.6273 38.8372C19.4023 38.8425 19.9575 39.2342 20.1911 39.9769C20.5589 41.1466 21.2203 42.0311 22.4231 42.4398C23.324 42.746 24.2407 42.8615 25.1847 42.7103C25.2901 42.6934 25.386 42.6596 25.371 42.4777C24.3993 42.1227 23.88 41.3213 23.5177 40.3938C23.2564 39.7248 23.1451 39.0211 23.1113 38.3047C23.0274 36.5254 21.7569 35.2894 19.978 35.2866C16.3376 35.2807 12.6971 35.2894 9.05667 35.2908C8.76582 35.291 8.48499 35.3268 8.20299 35.4108C6.78959 35.8316 6.09062 36.8047 5.97218 38.2429C5.91378 38.952 5.85641 39.6632 5.56846 40.3273C5.16084 41.2674 4.71671 42.1787 3.52363 42.5057C3.70613 42.6145 3.77113 42.6802 3.84554 42.6936C5.53951 42.9984 8.08833 42.5095 8.81393 40.1529C9.14477 39.0784 9.58412 38.8377 10.7169 38.8363C12.3841 38.8343 14.0512 38.8389 15.8205 38.8405ZM7.13795 24.4211C13.0086 24.4199 18.8793 24.4187 24.75 24.417C24.9541 24.4169 25.1593 24.4243 25.3622 24.4066C25.6821 24.3786 25.8489 24.1809 25.8709 23.8705C25.8936 23.5504 25.7252 23.3356 25.4218 23.2837C25.1565 23.2384 24.8793 23.2537 24.6076 23.2577C22.3672 23.29 20.1644 23.0408 18.0443 22.2903C16.6901 21.8109 15.4618 21.1441 14.8137 19.74C14.6389 19.3614 14.3157 19.3803 14.0984 19.8096C13.3062 21.375 11.8782 22.0501 10.3273 22.5439C8.53209 23.1155 6.67952 23.3204 4.80043 23.3155C4.4092 23.3144 4.01636 23.3016 3.62717 23.3317C3.25353 23.3607 3.06618 23.5951 3.16724 23.9645C3.25901 24.2999 3.51672 24.4275 3.87081 24.4235C4.92569 24.4116 5.98079 24.4204 7.13795 24.4211ZM7.77717 32.2203C7.06376 32.3655 6.32394 32.3189 5.62105 32.5647C4.47915 32.964 3.52059 33.5256 3.22297 34.8222C3.01776 35.7163 3.17199 36.6167 3.13058 37.5132C3.11166 37.9227 3.30648 38.2231 3.75301 38.2206C4.19808 38.2181 4.30307 37.8936 4.30582 37.5161C4.31003 36.9375 4.29937 36.3584 4.31981 35.7804C4.3494 34.9436 4.61039 34.2186 5.48281 33.9276C6.05722 33.736 6.62602 33.5031 7.2551 33.5039C12.07 33.51 16.885 33.5101 21.6999 33.505C22.2901 33.5044 22.8508 33.6363 23.3943 33.8347C24.3451 34.1819 24.7685 34.83 24.7769 35.8658C24.7819 36.4778 24.7775 37.0912 24.8198 37.701C24.8432 38.038 25.0499 38.2862 25.4269 38.2515C25.7865 38.2185 25.8852 37.9557 25.8834 37.6286C25.879 36.8798 25.8813 36.131 25.8838 35.3823C25.8879 34.1445 25.2318 33.3611 24.1674 32.8374C23.163 32.3431 22.0773 32.2301 20.9955 32.2234C16.622 32.1964 12.2482 32.2147 7.77717 32.2203Z" fill="#EC6C00"/>
</svg>
